<svg xmlns="http://www.w3.org/2000/svg" width="40" height="40" viewBox="0 0 40 40">
  <metadata><?xpacket begin="﻿" id="W5M0MpCehiHzreSzNTczkc9d"?>
<x:xmpmeta xmlns:x="adobe:ns:meta/" x:xmptk="Adobe XMP Core 5.6-c138 79.159824, 2016/09/14-01:09:01        ">
   <rdf:RDF xmlns:rdf="http://www.w3.org/1999/02/22-rdf-syntax-ns#">
      <rdf:Description rdf:about=""/>
   </rdf:RDF>
</x:xmpmeta>
                                                                                                    
                                                                                                    
                                                                                                    
                                                                                                    
                                                                                                    
                                                                                                    
                                                                                                    
                                                                                                    
                                                                                                    
                                                                                                    
                                                                                                    
                                                                                                    
                                                                                                    
                                                                                                    
                                                                                                    
                                                                                                    
                                                                                                    
                                                                                                    
                                                                                                    
                                                                                                    
                           
<?xpacket end="w"?></metadata>
<defs>
    <style>
      .cls-1 {
        fill: #07b906;
        fill-rule: evenodd;
      }
    </style>
  </defs>
  <path id="形状_1648_拷贝_3" data-name="形状 1648 拷贝 3" class="cls-1" d="M856.1,135.2a23.131,23.131,0,0,1-4.6-.663l-4.564,2.273,1.3-3.916c-3.265-2.273-5.23-5.211-5.23-8.811C843,117.9,848.9,113,856.1,113c6.435,0,12.078,3.916,13.219,9.159a8.338,8.338,0,0,0-1.268-.063c-6.213,0-11.127,4.61-11.127,10.327a9.958,9.958,0,0,0,.412,2.747C856.92,135.171,856.508,135.2,856.1,135.2ZM875.4,139.75L876.385,143l-3.582-1.958a17.069,17.069,0,0,1-3.931.664c-6.214,0-11.127-4.232-11.127-9.475,0-5.211,4.913-9.474,11.127-9.474,5.9,0,11.127,4.263,11.127,9.474,0,2.969-1.966,5.558-4.6,7.516h0ZM861.01,121.812a1.642,1.642,0,1,0,0-3.284A1.669,1.669,0,1,0,861.01,121.812Zm4.279,6.19a1.3,1.3,0,1,0,0,2.59,1.516,1.516,0,0,0,1.649-1.3A1.538,1.538,0,0,0,865.289,128Zm-13.441-9.443a1.669,1.669,0,1,0,0,3.285A1.643,1.643,0,1,0,851.848,118.559ZM872.454,128a1.3,1.3,0,1,0,0,2.59,1.515,1.515,0,0,0,1.648-1.3A1.494,1.494,0,0,0,872.454,128Z" transform="translate(-841.5 -108)"/>
</svg>
